<svg width="64" height="64" viewBox="0 0 64 64" fill="none" xmlns="http://www.w3.org/2000/svg">
<rect width="64" height="64" rx="10" fill="#2563EB"/>
<path d="M47.9426 10.1363C47.8202 9.53338 47.4932 8.99135 47.017 8.60201C46.5408 8.21268 45.9447 8 45.3296 8C44.7146 8 44.1185 8.21268 43.6423 8.60201C43.1661 8.99135 42.8391 9.53338 42.7167 10.1363L42.0768 13.3153C41.9739 13.8317 41.7205 14.3061 41.3485 14.6787C40.9765 15.0513 40.5026 15.3054 39.9864 15.4089L36.8082 16.0437C36.2026 16.1635 35.6573 16.4898 35.2654 16.967C34.8735 17.4441 34.6593 18.0425 34.6593 18.66C34.6593 19.2776 34.8735 19.8759 35.2654 20.3531C35.6573 20.8302 36.2026 21.1565 36.8082 21.2764L39.9864 21.9111C40.5031 22.0142 40.9776 22.2681 41.3501 22.6407C41.7226 23.0133 41.9764 23.4879 42.0795 24.0047L42.714 27.1838C42.8338 27.7896 43.16 28.335 43.637 28.727C44.114 29.1191 44.7123 29.3333 45.3296 29.3333C45.947 29.3333 46.5452 29.1191 47.0222 28.727C47.4992 28.335 47.8255 27.7896 47.9452 27.1838L48.5798 24.0047C48.6829 23.4879 48.9367 23.0133 49.3092 22.6407C49.6817 22.2681 50.1562 22.0142 50.6728 21.9111L53.851 21.2764C54.4566 21.1565 55.0019 20.8302 55.3938 20.3531C55.7858 19.8759 56 19.2776 56 18.66C56 18.0425 55.7858 17.4441 55.3938 16.967C55.0019 16.4898 54.4566 16.1635 53.851 16.0437L50.6728 15.4089C50.1562 15.3058 49.6817 15.052 49.3092 14.6793C48.9367 14.3067 48.6829 13.8321 48.5798 13.3153L47.9452 10.1363H47.9426ZM23.8635 20.4843C23.687 19.9526 23.3475 19.4901 22.8933 19.1623C22.4391 18.8345 21.8933 18.6581 21.3333 18.6581C20.7732 18.6581 20.2274 18.8345 19.7732 19.1623C19.319 19.4901 18.9795 19.9526 18.803 20.4843L16.9819 25.9543C16.8511 26.3475 16.6304 26.7048 16.3374 26.9978C16.0445 27.2909 15.6873 27.5116 15.2942 27.6425L9.82565 29.4641C9.29416 29.6407 8.83176 29.9802 8.50406 30.4345C8.17636 30.8888 8 31.4348 8 31.995C8 32.5553 8.17636 33.1012 8.50406 33.5555C8.83176 34.0099 9.29416 34.3494 9.82565 34.526L15.2942 36.3503C15.687 36.4809 16.044 36.7012 16.3369 36.9937C16.6299 37.2863 16.8507 37.6431 16.9819 38.0358L18.803 43.5058C18.9795 44.0375 19.319 44.5 19.7732 44.8278C20.2274 45.1556 20.7732 45.332 21.3333 45.332C21.8933 45.332 22.4391 45.1556 22.8933 44.8278C23.3475 44.5 23.687 44.0375 23.8635 43.5058L25.6846 38.0358C25.8154 37.6426 26.0361 37.2853 26.3291 36.9922C26.622 36.6992 26.9792 36.4785 27.3723 36.3476L32.8408 34.526C33.3723 34.3494 33.8347 34.0099 34.1624 33.5555C34.4901 33.1012 34.6665 32.5553 34.6665 31.995C34.6665 31.4348 34.4901 30.8888 34.1624 30.4345C33.8347 29.9802 33.3723 29.6407 32.8408 29.4641L27.3723 27.6425C26.9792 27.5116 26.622 27.2909 26.3291 26.9978C26.0361 26.7048 25.8154 26.3475 25.6846 25.9543L23.8635 20.4843ZM42.5274 41.8203C42.3508 41.2886 42.0114 40.8261 41.5572 40.4983C41.103 40.1705 40.5572 39.9941 39.9971 39.9941C39.437 39.9941 38.8912 40.1705 38.437 40.4983C37.9828 40.8261 37.6434 41.2886 37.4668 41.8203L36.9762 43.2898C36.8456 43.6827 36.6254 44.0398 36.3329 44.3329C36.0404 44.6259 35.6838 44.8468 35.2911 44.978L33.822 45.4661C33.2905 45.6427 32.8281 45.9822 32.5004 46.4366C32.1727 46.8909 31.9964 47.4368 31.9964 47.9971C31.9964 48.5573 32.1727 49.1033 32.5004 49.5576C32.8281 50.0119 33.2905 50.3514 33.822 50.528L35.2911 51.0161C35.6842 51.147 36.0415 51.3677 36.3344 51.6608C36.6274 51.9538 36.848 52.3111 36.9789 52.7043L37.4668 54.1738C37.6434 54.7055 37.9828 55.168 38.437 55.4958C38.8912 55.8236 39.437 56 39.9971 56C40.5572 56 41.103 55.8236 41.5572 55.4958C42.0114 55.168 42.3508 54.7055 42.5274 54.1738L43.018 52.7043C43.1486 52.3114 43.3688 51.9543 43.6613 51.6612C43.9538 51.3682 44.3104 51.1473 44.7031 51.0161L46.1722 50.528C46.7037 50.3514 47.1661 50.0119 47.4938 49.5576C47.8215 49.1033 47.9978 48.5573 47.9978 47.9971C47.9978 47.4368 47.8215 46.8909 47.4938 46.4366C47.1661 45.9822 46.7037 45.6427 46.1722 45.4661L44.7031 44.9753C44.3102 44.8447 43.9532 44.6244 43.6603 44.3319C43.3673 44.0393 43.1465 43.6825 43.0153 43.2898L42.5274 41.8203Z" fill="white"/>
</svg>